<svg xmlns="http://www.w3.org/2000/svg" width="120" height="34" viewBox="0 0 120 34" fill="none">
<path d="M58.8765 2.79102H65.5186C68.4297 2.79102 69.9159 4.04275 69.9159 6.35127C69.9722 6.94751 69.8415 7.54647 69.5421 8.06497C69.2427 8.58348 68.7894 8.99578 68.2452 9.24462C68.9252 9.48216 69.5078 9.93778 69.9026 10.5407C70.2974 11.1437 70.4822 11.8603 70.4285 12.5792C70.4285 15.2365 68.6142 16.8474 65.3033 16.8474H58.8765V2.79102ZM64.9548 8.21861C66.3489 8.21861 67.0049 7.76716 67.0049 6.70011C67.0049 5.63306 66.3181 5.23292 64.9548 5.23292H61.6645V8.21861H64.9548ZM65.0778 14.3028C66.6564 14.3028 67.3841 13.7796 67.3841 12.4766C67.3841 11.1735 66.6564 10.6297 65.0676 10.6297H61.6645V14.3028H65.0778Z" fill="white"/>
<path d="M81.5917 2.79102L86.6553 16.8474H83.6417L82.668 14.0053H77.2354L76.2923 16.8987H73.2173L78.2194 2.84232L81.5917 2.79102ZM77.9939 11.5942H81.9095L79.9517 5.59202L77.9939 11.5942Z" fill="white"/>
<path d="M90.3032 2.79102H93.3373L99.0466 12.456V2.79102H101.906V16.8474H98.9031L93.163 7.1926V16.8474H90.3032V2.79102Z" fill="white"/>
<path d="M107.495 2.79102H110.385V8.54693L115.869 2.79102H119.487L113.881 8.48537L120 16.8474H116.453L111.892 10.4143L110.385 11.8917V16.8474H107.495V2.79102Z" fill="white"/>
<path d="M8.40516 2.79297L13.4688 16.8493H10.3937L9.48143 14.0073H4.02833L3.07506 16.8493H0L4.99185 2.79297H8.40516ZM4.78684 11.5859H8.70242L6.74463 5.6145L4.78684 11.5859Z" fill="white"/>
<path d="M17.5186 2.79102H24.1402C27.0512 2.79102 28.5478 4.06327 28.5478 6.35127C28.6025 6.94729 28.4711 7.54562 28.1719 8.06381C27.8727 8.58201 27.4202 8.99456 26.877 9.24462C27.5562 9.47901 28.1383 9.9328 28.5317 10.5346C28.9251 11.1364 29.1074 11.852 29.05 12.5689C29.05 15.2468 27.246 16.8474 23.9249 16.8474H17.5186V2.79102ZM23.5764 8.22887C24.9602 8.22887 25.6265 7.77742 25.6265 6.70011C25.6265 5.6228 24.9397 5.23292 23.5764 5.23292H20.2964V8.22887H23.5764ZM23.6892 14.3028C25.2677 14.3028 26.016 13.7693 26.016 12.4868C26.016 11.2043 25.2677 10.6297 23.6687 10.6297H20.2964V14.3028H23.6892Z" fill="white"/>
<path d="M40.2323 2.79102L45.2959 16.8474H42.2721L41.3086 14.0053H35.876L34.9535 16.8987H31.8784L36.901 2.79102H40.2323ZM36.6243 11.5839H40.5296L38.582 5.61254L36.6243 11.5839Z" fill="white"/>
<path d="M49.3135 0H46.5972V5.5815H49.3135V0Z" fill="#ED1F24"/>
<path d="M119.991 23.5371H0.0742188V24.3066H119.991V23.5371Z" fill="white"/>
<path d="M4.10255 29.4661C4.01281 29.4966 3.91553 29.4966 3.82579 29.4661C3.76026 29.4315 3.70669 29.3778 3.67204 29.3122L2.92378 28.2862C2.88913 28.2206 2.83555 28.167 2.77002 28.1323C2.67952 28.1069 2.58377 28.1069 2.49327 28.1323L0.0742188 28.7992V33.3137L2.50352 32.6468C2.59402 32.6214 2.68977 32.6214 2.78027 32.6468C2.84177 32.6468 2.88277 32.7391 2.93403 32.8007L3.67204 33.8267C3.71604 33.8883 3.77178 33.9406 3.83604 33.9806C3.92311 34.0057 4.01548 34.0057 4.10255 33.9806L6.5216 33.324V28.8198L4.10255 29.4661Z" fill="#ED1F24"/>
<path d="M47.7261 32.4011H49.3866L49.6736 33.3245H50.6987L49.1099 28.8203L47.7978 29.4564L46.4141 33.3245H47.4391L47.7261 32.4011ZM48.5564 29.8361L49.1099 31.6213H47.9721L48.5564 29.8361Z" fill="white"/>
<path d="M45.6019 30.8929C45.7802 30.8207 45.9304 30.6929 46.0302 30.5283C46.1299 30.3637 46.1739 30.1713 46.1554 29.9797C46.1554 29.5077 45.8684 28.8203 44.7614 28.8203H43.5211L42.5679 29.282V33.3245H44.4847C45.4072 33.3245 45.6532 33.1706 45.9094 32.9244C46.1567 32.6764 46.2967 32.341 46.2989 31.9907C46.3274 31.7553 46.2735 31.5172 46.1465 31.3171C46.0194 31.1169 45.827 30.967 45.6019 30.8929ZM43.4801 29.6001H44.5052C44.9357 29.6001 45.2022 29.7129 45.2022 30.0823C45.2022 30.4517 44.9049 30.5851 44.5359 30.5851H43.4801V29.6001ZM44.6282 32.5447H43.4801V31.3443H44.6794C45.0177 31.3443 45.3559 31.4982 45.3559 31.8881C45.3559 32.278 45.0997 32.5447 44.6282 32.5447Z" fill="white"/>
<path d="M54.7667 33.3245V28.8203L53.8852 29.2512V31.9599H53.875L52.0812 28.8203L51.0972 29.3025V33.3245H51.9684V30.1131H51.9889L53.8237 33.3245H54.7667Z" fill="white"/>
<path d="M56.5807 31.806L57.0215 31.3546L58.4155 33.3245H59.625L57.6775 30.6671L59.5123 28.8203L58.0567 29.0768L56.5807 30.6569V28.8203L55.6377 29.282V33.3245H56.5807V31.806Z" fill="white"/>
<path d="M17.0059 28.8203L15.7554 29.4564L14.3511 33.3245H15.2838L15.6016 32.4011H17.2621L17.5491 33.3245H18.5742L16.9854 28.8203H17.0059ZM15.8681 31.6213L16.4524 29.8361L17.0059 31.6213H15.8681Z" fill="white"/>
<path d="M35.5054 28.8203L34.1933 29.4564L32.7993 33.3245H33.8243L34.1421 32.4011H35.8026L36.0896 33.3245H37.1146L35.5259 28.8203H35.5054ZM34.3778 31.6213L34.9519 29.8361L35.5156 31.6213H34.3778Z" fill="white"/>
<path d="M20.4093 33.3245V29.6206H21.3113L21.7726 28.8203H18.5643L18.103 29.6103V29.6206H19.4663V33.3245H20.4093Z" fill="white"/>
<path d="M23.0841 28.8203L22.1401 29.282V33.3245H23.0841V28.8203Z" fill="white"/>
<path d="M25.8826 33.4987C26.1901 33.5196 26.4983 33.4707 26.7843 33.3559C27.0703 33.241 27.3267 33.0631 27.5345 32.8353C27.7424 32.6076 27.8962 32.3359 27.9847 32.0404C28.0731 31.7449 28.0939 31.4333 28.0454 31.1287C28.0939 30.824 28.0731 30.5124 27.9847 30.2169C27.8962 29.9215 27.7424 29.6497 27.5345 29.422C27.3267 29.1943 27.0703 29.0163 26.7843 28.9015C26.4983 28.7866 26.1901 28.7378 25.8826 28.7586H25.7391L24.1811 29.5178C23.8472 29.9863 23.681 30.5539 23.7096 31.1287C23.6705 31.4326 23.6982 31.7413 23.7908 32.0334C23.8833 32.3255 24.0386 32.5937 24.2455 32.8195C24.4525 33.0452 24.7063 33.223 24.989 33.3403C25.2718 33.4576 25.5768 33.5117 25.8826 33.4987ZM25.8826 29.5486C26.3849 29.5486 27.1024 29.8667 27.1024 31.1287C27.1024 32.3907 26.3849 32.7087 25.8826 32.7087C25.3804 32.7087 24.6526 32.3907 24.6526 31.1287C24.6526 29.8667 25.3701 29.4973 25.8826 29.4973V29.5486Z" fill="white"/>
<path d="M11.1325 30.1131H11.1427L12.9775 33.3245H13.9206V28.8203L13.0493 29.2512V31.9599H13.0288L11.2452 28.8203L10.251 29.3025V33.3245H11.1325V30.1131Z" fill="white"/>
<path d="M31.4668 31.9599H31.4565L29.6627 28.8203L28.6685 29.3025V33.3245H29.55V30.1131H29.5602L31.4053 33.3245H32.3483V28.8203L31.4668 29.2512V31.9599Z" fill="white"/>
<path d="M40.744 32.514H38.4992V28.8203L37.5664 29.282V33.3245H40.2725L40.744 32.514Z" fill="white"/>
<path d="M77.9854 28.8203L76.6733 29.4564L75.2896 33.3245H76.3146L76.6323 32.4011H78.2929L78.5799 33.3245H79.6049L78.0161 28.8203H77.9854ZM76.8783 31.6213L77.4523 29.8361L78.0059 31.6213H76.8783Z" fill="white"/>
<path d="M95.3281 28.8203L94.0058 29.4564L92.6323 33.3245H93.6573L93.9751 32.4011H95.6459L95.9329 33.3245H96.9579L95.3281 28.8203ZM94.1904 31.6213L94.7644 29.8361L95.3281 31.6213H94.1904Z" fill="white"/>
<path d="M86.8799 28.8203L85.5679 29.4564L84.1841 33.3245H85.2091L85.5269 32.4011H87.1259L87.4129 33.3245H88.4379L86.8491 28.8203H86.8799ZM85.7421 31.6213L86.3264 29.8361L86.8799 31.6213H85.7421Z" fill="white"/>
<path d="M74.3747 31.7755C74.3332 32.0164 74.2071 32.2345 74.0192 32.3906C73.8313 32.5468 73.5938 32.6306 73.3496 32.6271C72.5501 32.6271 72.2324 31.8986 72.2324 31.088C72.2324 29.8055 72.8986 29.508 73.3496 29.508C73.5879 29.4812 73.8273 29.5473 74.0181 29.6925C74.209 29.8377 74.3367 30.0508 74.3747 30.2877H75.3177C75.2685 29.8183 75.0365 29.3871 74.672 29.0875C74.3075 28.788 73.8398 28.6441 73.3702 28.6872L71.7506 29.4464C71.4209 29.9208 71.2553 30.4901 71.2791 31.0675C71.2791 32.6271 72.1401 33.4376 73.3292 33.4376C73.8071 33.4642 74.2772 33.307 74.6431 32.9979C75.009 32.6889 75.243 32.2516 75.2972 31.7755H74.3747Z" fill="white"/>
<path d="M82.8325 31.9599H82.8223L81.0387 28.8203L80.0444 29.3025V33.3245H80.9157V30.1131H80.9362L82.771 33.3245H83.714V28.8203L82.8325 29.241V31.9599Z" fill="white"/>
<path d="M90.929 28.8203H89.904L88.9609 29.282V33.3245H90.9085C92.405 33.3245 92.7843 31.9291 92.7843 30.9647C92.7843 30.0002 92.4563 28.8203 90.929 28.8203ZM90.7752 32.5447H89.863V29.6001H90.765C91.1647 29.6001 91.79 29.7027 91.79 31.0365C91.8002 31.7752 91.544 32.5447 90.7752 32.5447Z" fill="white"/>
<path d="M69.2085 29.6103L69.6697 28.8203H67.4352L66.4512 29.2923V33.3245H67.3942V31.4264H68.9215L69.3827 30.6364H67.3942V29.6103H69.2085Z" fill="white"/>
<path d="M63.6643 28.7172H63.5515L61.9832 29.4764C61.6456 29.9436 61.4759 30.5113 61.5015 31.0873C61.472 31.3907 61.5063 31.6969 61.602 31.9862C61.6978 32.2756 61.853 32.5417 62.0577 32.7674C62.2623 32.9932 62.5119 33.1735 62.7904 33.297C63.0688 33.4204 63.37 33.4842 63.6745 33.4842C63.979 33.4842 64.2802 33.4204 64.5586 33.297C64.8371 33.1735 65.0867 32.9932 65.2913 32.7674C65.496 32.5417 65.6512 32.2756 65.747 31.9862C65.8428 31.6969 65.877 31.3907 65.8475 31.0873C65.8868 30.7825 65.8589 30.4728 65.7658 30.18C65.6726 29.8871 65.5165 29.6183 65.3083 29.3924C65.1002 29.1664 64.8452 28.9889 64.5611 28.8722C64.2771 28.7556 63.9709 28.7027 63.6643 28.7172ZM63.6643 32.6673C63.1517 32.6673 62.4342 32.3493 62.4342 31.0873C62.4342 29.8253 63.1517 29.5175 63.6643 29.5175C64.1768 29.5175 64.8943 29.8253 64.8943 31.0873C64.8943 32.3493 64.1768 32.6673 63.6643 32.6673Z" fill="white"/>
<path d="M109.584 28.7195H109.441L107.883 29.4788C107.549 29.9472 107.383 30.5148 107.411 31.0896C107.391 31.3871 107.432 31.6857 107.532 31.9667C107.631 32.2477 107.788 32.5052 107.991 32.7232C108.194 32.9412 108.44 33.115 108.713 33.2339C108.987 33.3527 109.281 33.414 109.579 33.414C109.877 33.414 110.172 33.3527 110.445 33.2339C110.718 33.115 110.964 32.9412 111.168 32.7232C111.371 32.5052 111.527 32.2477 111.627 31.9667C111.727 31.6857 111.768 31.3871 111.747 31.0896C111.796 30.785 111.775 30.4734 111.686 30.1779C111.598 29.8824 111.444 29.6107 111.236 29.3829C111.029 29.1552 110.772 28.9773 110.486 28.8624C110.2 28.7476 109.892 28.6987 109.584 28.7195ZM109.584 32.6697C109.072 32.6697 108.354 32.3516 108.354 31.0896C108.354 29.8276 109.072 29.5198 109.584 29.5198C110.097 29.5198 110.804 29.8276 110.804 31.0896C110.804 32.3516 110.087 32.6697 109.584 32.6697Z" fill="white"/>
<path d="M100.676 31.6413H101.701V32.2159C101.562 32.3271 101.406 32.417 101.24 32.4827C101.064 32.5535 100.876 32.5918 100.687 32.5955C100.517 32.6016 100.349 32.5687 100.194 32.4993C100.04 32.4299 99.9031 32.326 99.7949 32.1954C99.5449 31.8474 99.4252 31.4224 99.4567 30.995C99.4266 30.5931 99.5472 30.1943 99.7949 29.8766C99.906 29.751 100.044 29.6517 100.198 29.586C100.352 29.5203 100.519 29.4899 100.687 29.497C100.913 29.4871 101.135 29.56 101.312 29.7022C101.484 29.8272 101.608 30.0087 101.66 30.2152H102.501C102.488 29.9951 102.43 29.78 102.329 29.5839C102.229 29.3877 102.088 29.2148 101.917 29.0763C101.547 28.8311 101.109 28.7123 100.666 28.7377H100.451L99.0364 29.4662C98.9647 29.5688 98.9032 29.6714 98.8417 29.774C98.6519 30.1598 98.557 30.5855 98.5649 31.0155C98.56 31.4287 98.6439 31.838 98.8109 32.2159C98.9716 32.5702 99.2362 32.8672 99.5694 33.0675C99.9261 33.2665 100.33 33.3657 100.738 33.3548C101.089 33.3484 101.436 33.2789 101.763 33.1496C102.055 33.0365 102.322 32.8694 102.552 32.6571V30.8821H100.676V31.6413Z" fill="white"/>
<path d="M106.182 31.7031C106.048 31.5568 105.893 31.4322 105.721 31.3337C106.047 31.3037 106.35 31.1538 106.572 30.9131C106.768 30.6818 106.87 30.3852 106.859 30.082C106.862 29.8304 106.798 29.5825 106.674 29.3638C106.557 29.1724 106.381 29.0246 106.172 28.9431C105.842 28.8339 105.494 28.7886 105.147 28.8097H104.255L103.322 29.3022V33.3242H104.194V31.4466H104.358C104.504 31.4243 104.652 31.4243 104.798 31.4466C104.901 31.491 104.995 31.5536 105.075 31.6313C105.147 31.7339 105.301 31.9493 105.526 32.3084L106.151 33.2831H107.176L106.643 32.411C106.507 32.1639 106.353 31.9273 106.182 31.7031ZM104.839 30.6771H104.204V29.5792H105.516C105.642 29.5986 105.757 29.6601 105.844 29.7537C105.931 29.86 105.975 29.9957 105.967 30.1333C105.971 30.2496 105.938 30.3643 105.875 30.4616C105.818 30.5534 105.731 30.6223 105.629 30.6566C105.37 30.7163 105.104 30.7404 104.839 30.7284V30.6771Z" fill="white"/>
<path d="M114.967 31.2725C114.983 31.5219 114.983 31.7721 114.967 32.0215C114.939 32.1709 114.859 32.3056 114.741 32.4011C114.584 32.5238 114.386 32.5825 114.188 32.5653C113.987 32.572 113.79 32.5145 113.624 32.4011C113.487 32.2904 113.396 32.1334 113.368 31.9599C113.351 31.714 113.351 31.4671 113.368 31.2212V28.8203L112.507 29.2615V31.1801C112.493 31.5582 112.521 31.9366 112.589 32.3088C112.628 32.4909 112.713 32.6602 112.835 32.8012C112.967 32.9645 113.135 33.0946 113.327 33.1809C113.622 33.2893 113.935 33.3381 114.249 33.3245C114.529 33.3365 114.808 33.2911 115.069 33.1911C115.261 33.1102 115.433 32.9875 115.571 32.832C115.693 32.6665 115.78 32.478 115.828 32.278C115.884 31.9045 115.904 31.5267 115.889 31.1494V28.8203L115.038 29.2718L114.967 31.2725Z" fill="white"/>
<path d="M119.743 29.3336C119.596 29.1123 119.374 28.9519 119.118 28.8822C118.779 28.8273 118.436 28.8067 118.093 28.8206H117.631L116.688 29.3028V33.3248H117.56V31.6319H118.134C118.436 31.6358 118.738 31.6118 119.036 31.5601C119.198 31.5162 119.351 31.4432 119.487 31.3446C119.643 31.2288 119.769 31.0776 119.856 30.9034C119.953 30.6841 119.998 30.4454 119.989 30.2057C120.011 29.8952 119.924 29.5867 119.743 29.3336ZM119.005 30.5751C118.93 30.6711 118.831 30.7454 118.718 30.7905C118.498 30.8492 118.269 30.8735 118.042 30.8624H117.56V29.5798H117.98C118.192 29.5641 118.404 29.5641 118.616 29.5798C118.749 29.607 118.871 29.6751 118.964 29.7748C119.056 29.891 119.104 30.0368 119.097 30.1852C119.104 30.3213 119.072 30.4565 119.005 30.5751Z" fill="white"/>
</svg>